<svg width="43" height="43" viewBox="0 0 43 43" fill="none" xmlns="http://www.w3.org/2000/svg">
<path d="M43 21.5C43 9.632 33.368 0 21.5 0C9.632 0 0 9.632 0 21.5C0 33.368 9.632 43 21.5 43C33.368 43 43 33.368 43 21.5ZM21.5 27.4985V23.65H15.05C13.8675 23.65 12.9 22.6825 12.9 21.5C12.9 20.3175 13.8675 19.35 15.05 19.35H21.5V15.5015C21.5 14.534 22.661 14.061 23.3275 14.749L29.326 20.7475C29.756 21.1775 29.756 21.844 29.326 22.274L23.3275 28.2725C23.1759 28.4211 22.9838 28.5215 22.7753 28.561C22.5667 28.6005 22.3512 28.5775 22.1557 28.4947C21.9603 28.4119 21.7937 28.2732 21.6771 28.0959C21.5604 27.9186 21.4988 27.7107 21.5 27.4985Z" fill="white"/>
</svg>
