<svg width="9" height="16" viewBox="0 0 9 16" fill="none" xmlns="http://www.w3.org/2000/svg">
<path d="M8.63745 14.825C8.82495 14.6375 8.9187 14.4155 8.9187 14.159C8.9187 13.903 8.82495 13.6813 8.63745 13.4938L3.1437 8L8.6562 2.4875C8.8312 2.3125 8.9187 2.09375 8.9187 1.83125C8.9187 1.56875 8.82495 1.34375 8.63745 1.15625C8.44995 0.96875 8.22795 0.875 7.97145 0.875C7.71545 0.875 7.4937 0.96875 7.3062 1.15625L1.0062 7.475C0.9312 7.55 0.877951 7.63125 0.846451 7.71875C0.815451 7.80625 0.799951 7.9 0.799951 8C0.799951 8.1 0.815451 8.19375 0.846451 8.28125C0.877951 8.36875 0.9312 8.45 1.0062 8.525L7.32495 14.8438C7.49995 15.0188 7.71545 15.1063 7.97145 15.1063C8.22795 15.1063 8.44995 15.0125 8.63745 14.825Z" fill="#38A700"/>
</svg>
