<svg width="43" height="43" viewBox="0 0 43 43" fill="none" xmlns="http://www.w3.org/2000/svg">
<path d="M0 21.5C0 33.368 9.632 43 21.5 43C33.368 43 43 33.368 43 21.5C43 9.632 33.368 0 21.5 0C9.632 0 0 9.632 0 21.5ZM21.5 15.5015V19.35H27.95C29.1325 19.35 30.1 20.3175 30.1 21.5C30.1 22.6825 29.1325 23.65 27.95 23.65H21.5V27.4985C21.5 28.466 20.339 28.939 19.6725 28.251L13.674 22.2525C13.244 21.8225 13.244 21.156 13.674 20.726L19.6725 14.7275C19.8241 14.5789 20.0162 14.4785 20.2247 14.439C20.4333 14.3995 20.6488 14.4225 20.8443 14.5053C21.0397 14.5881 21.2063 14.7268 21.3229 14.9041C21.4396 15.0814 21.5012 15.2893 21.5 15.5015Z" fill="white"/>
</svg>
