<svg width="27" height="46" viewBox="0 0 27 46" fill="none" xmlns="http://www.w3.org/2000/svg">
<path d="M25.7207 44.9917C26.3249 44.3876 26.627 43.6722 26.627 42.8457C26.627 42.0209 26.3249 41.3063 25.7207 40.7022L8.01862 23.0001L25.7811 5.23758C26.345 4.67369 26.627 3.96883 26.627 3.123C26.627 2.27716 26.3249 1.55216 25.7207 0.947998C25.1165 0.343831 24.4012 0.041748 23.5747 0.041748C22.7498 0.041748 22.0353 0.343831 21.4311 0.947998L1.13112 21.3084C0.88945 21.5501 0.717867 21.8119 0.616367 22.0938C0.516479 22.3758 0.466534 22.6779 0.466534 23.0001C0.466534 23.3223 0.516479 23.6244 0.616367 23.9063C0.717867 24.1883 0.88945 24.4501 1.13112 24.6917L21.4915 45.0522C22.0554 45.6161 22.7498 45.898 23.5747 45.898C24.4012 45.898 25.1165 45.5959 25.7207 44.9917Z" fill="#38A700"/>
</svg>
