<svg width="27" height="46" viewBox="0 0 27 46" fill="none" xmlns="http://www.w3.org/2000/svg">
<path d="M1.2793 44.9917C0.67513 44.3876 0.373047 43.6722 0.373047 42.8457C0.373047 42.0209 0.67513 41.3063 1.2793 40.7022L18.9814 23.0001L1.21888 5.23758C0.654991 4.67369 0.373047 3.96883 0.373047 3.123C0.373047 2.27716 0.67513 1.55216 1.2793 0.947998C1.88346 0.343831 2.5988 0.041748 3.4253 0.041748C4.25019 0.041748 4.96471 0.343831 5.56888 0.947998L25.8689 21.3084C26.1105 21.5501 26.2821 21.8119 26.3836 22.0938C26.4835 22.3758 26.5335 22.6779 26.5335 23.0001C26.5335 23.3223 26.4835 23.6244 26.3836 23.9063C26.2821 24.1883 26.1105 24.4501 25.8689 24.6917L5.50846 45.0522C4.94457 45.6161 4.25019 45.898 3.4253 45.898C2.5988 45.898 1.88346 45.5959 1.2793 44.9917Z" fill="#38A700"/>
</svg>
