<svg width="10" height="6" viewBox="0 0 10 6" fill="none" xmlns="http://www.w3.org/2000/svg">
<path d="M9.55 5.425C9.425 5.55 9.277 5.6125 9.106 5.6125C8.93533 5.6125 8.7875 5.55 8.6625 5.425L5 1.7625L1.325 5.4375C1.20833 5.55417 1.0625 5.6125 0.8875 5.6125C0.7125 5.6125 0.5625 5.55 0.4375 5.425C0.3125 5.3 0.25 5.152 0.25 4.981C0.25 4.81034 0.3125 4.6625 0.4375 4.5375L4.65 0.337502C4.7 0.287502 4.75417 0.252002 4.8125 0.231002C4.87083 0.210336 4.93333 0.200002 5 0.200002C5.06667 0.200002 5.12917 0.210336 5.1875 0.231002C5.24583 0.252002 5.3 0.287502 5.35 0.337502L9.5625 4.55C9.67917 4.66667 9.7375 4.81034 9.7375 4.981C9.7375 5.152 9.675 5.3 9.55 5.425Z" fill="white"/>
</svg>
