<svg width="16" height="9" viewBox="0 0 16 9" fill="none" xmlns="http://www.w3.org/2000/svg">
<path d="M1.2267 0.488657C1.41861 0.296746 1.64583 0.20079 1.90837 0.20079C2.17039 0.20079 2.39735 0.296746 2.58926 0.488657L8.21226 6.11165L13.8544 0.469466C14.0336 0.290349 14.2575 0.20079 14.5261 0.20079C14.7948 0.20079 15.0251 0.296746 15.217 0.488657C15.4089 0.680568 15.5049 0.907791 15.5049 1.17033C15.5049 1.43235 15.4089 1.65932 15.217 1.85123L8.74961 8.29944C8.67285 8.37621 8.58969 8.43071 8.50013 8.46295C8.41057 8.49468 8.31461 8.51054 8.21226 8.51054C8.10991 8.51054 8.01395 8.49468 7.92439 8.46295C7.83484 8.43071 7.75167 8.37621 7.67491 8.29944L1.20751 1.83203C1.02839 1.65292 0.93883 1.43235 0.93883 1.17033C0.93883 0.907791 1.03479 0.680568 1.2267 0.488657Z" fill="#38A700"/>
</svg>
