<svg width="20" height="15" viewBox="0 0 20 15" fill="none" xmlns="http://www.w3.org/2000/svg">
<path fill-rule="evenodd" clip-rule="evenodd" d="M0 2.04545C0 1.50297 0.210714 0.982697 0.585786 0.5991C0.960859 0.215503 1.46957 0 2 0H18C18.5304 0 19.0391 0.215503 19.4142 0.5991C19.7893 0.982697 20 1.50297 20 2.04545V12.9545C20 13.497 19.7893 14.0173 19.4142 14.4009C19.0391 14.7845 18.5304 15 18 15H2C1.46957 15 0.960859 14.7845 0.585786 14.4009C0.210714 14.0173 0 13.497 0 12.9545L0 2.04545ZM5.33333 2.72727H2.66667V5.45455H4V4.09091H5.33333V2.72727ZM16 4.09091H14.6667V2.72727H17.3333V5.45455H16V4.09091ZM10 4.09091C9.11594 4.09091 8.2681 4.45008 7.64298 5.08941C7.01786 5.72874 6.66667 6.59585 6.66667 7.5C6.66667 8.40415 7.01786 9.27126 7.64298 9.91059C8.2681 10.5499 9.11594 10.9091 10 10.9091C10.8841 10.9091 11.7319 10.5499 12.357 9.91059C12.9821 9.27126 13.3333 8.40415 13.3333 7.5C13.3333 6.59585 12.9821 5.72874 12.357 5.08941C11.7319 4.45008 10.8841 4.09091 10 4.09091ZM14.6667 10.9091V12.2727H17.3333V9.54545H16V10.9091H14.6667ZM2.66667 9.54545H4V10.9091H5.33333V12.2727H2.66667V9.54545Z" fill="#38A700"/>
</svg>
