<svg width="8" height="14" viewBox="0 0 8 14" fill="none" xmlns="http://www.w3.org/2000/svg">
<path d="M7.2334 0.933252C7.40007 1.09992 7.4834 1.29725 7.4834 1.52525C7.4834 1.75281 7.40007 1.94992 7.2334 2.11659L2.35006 6.99992L7.25007 11.8999C7.40562 12.0555 7.4834 12.2499 7.4834 12.4833C7.4834 12.7166 7.40007 12.9166 7.2334 13.0833C7.06673 13.2499 6.8694 13.3333 6.6414 13.3333C6.41384 13.3333 6.21673 13.2499 6.05007 13.0833L0.450064 7.46659C0.383398 7.39992 0.336064 7.3277 0.308064 7.24992C0.280509 7.17214 0.266731 7.08881 0.266731 6.99992C0.266731 6.91103 0.280509 6.8277 0.308064 6.74992C0.336064 6.67214 0.383398 6.59992 0.450064 6.53325L6.06673 0.916586C6.22229 0.76103 6.41384 0.683252 6.6414 0.683252C6.8694 0.683252 7.06673 0.766585 7.2334 0.933252Z" fill="#717171"/>
</svg>
