<svg width="22" height="17" viewBox="0 0 22 17" fill="none" xmlns="http://www.w3.org/2000/svg">
<path d="M19.5298 6.21843V2.73141C19.5298 2.11487 19.2797 1.52358 18.8347 1.08762C18.3897 0.651659 17.7861 0.406738 17.1567 0.406738H5.29113C4.66175 0.406738 4.05814 0.651659 3.61309 1.08762C3.16805 1.52358 2.91803 2.11487 2.91803 2.73141V6.21843C2.28864 6.21843 1.68503 6.46335 1.23999 6.89931C0.794945 7.33527 0.544922 7.92656 0.544922 8.5431V14.3548H2.12304L2.91803 16.6795H4.10458L4.89957 14.3548H17.5482L18.3432 16.6795H19.5298L20.3248 14.3548H21.9029V8.5431C21.9029 7.92656 21.6529 7.33527 21.2078 6.89931C20.7628 6.46335 20.1592 6.21843 19.5298 6.21843ZM17.1567 6.21843H5.29113V2.73141H17.1567V6.21843Z" fill="#38A700"/>
</svg>
