<svg width="15" height="12" viewBox="0 0 15 12" fill="none" xmlns="http://www.w3.org/2000/svg">
<path d="M3.38244 3.65312L5.50772 4.41315C6.24016 2.74631 7.30207 1.46358 8.40082 0.862376C6.40521 0.762415 4.47162 1.61791 3.228 3.14779C3.08876 3.3195 3.17264 3.5781 3.38244 3.65312ZM6.13505 4.6376L11.0987 6.41258C11.843 3.93133 11.4879 1.67699 10.2114 1.22072C10.0574 1.16553 9.89649 1.13896 9.73082 1.13896C8.52321 1.13916 7.06105 2.55293 6.13505 4.6376ZM11.8349 2.09135C11.9643 2.42455 12.0603 2.79864 12.1096 3.21954C12.2291 4.23939 12.0801 5.43198 11.7152 6.63295L13.8511 7.39666C14.0611 7.47168 14.2946 7.32654 14.3 7.107C14.3483 5.1509 13.4277 3.27535 11.8349 2.09135ZM12.6366 10.0122H7.6634L9.01504 6.36373L7.7633 5.91605L6.24598 10.012H1.31398C1.12998 10.012 0.980957 10.1584 0.980957 10.3393V10.9936C0.980957 11.1743 1.12998 11.3209 1.31398 11.3209H12.6366C12.8206 11.3209 12.9696 11.1743 12.9696 10.9936V10.3393C12.9696 10.1586 12.8206 10.0122 12.6366 10.0122Z" fill="#38A700"/>
</svg>
