<svg width="18" height="16" viewBox="0 0 18 16" fill="none" xmlns="http://www.w3.org/2000/svg">
<path d="M9 13.4042L4.73441 15.8502C4.54597 15.9643 4.34897 16.0132 4.1434 15.9969C3.93783 15.9806 3.75795 15.9154 3.60377 15.8013C3.4496 15.6871 3.32968 15.5446 3.24403 15.3737C3.15837 15.2022 3.14124 15.0104 3.19263 14.7984L4.32327 10.1754L0.545913 7.06899C0.374605 6.92222 0.267708 6.75492 0.225223 6.56706C0.182053 6.37986 0.19473 6.19657 0.263254 6.0172C0.331777 5.83782 0.434562 5.69106 0.571609 5.57692C0.708656 5.46277 0.897096 5.38939 1.13693 5.35677L6.12201 4.94095L8.04924 0.587044C8.13489 0.391363 8.26783 0.244602 8.44804 0.146761C8.62758 0.0489204 8.81156 0 9 0C9.18844 0 9.37277 0.0489204 9.55299 0.146761C9.73252 0.244602 9.86511 0.391363 9.95077 0.587044L11.878 4.94095L16.8631 5.35677C17.1029 5.38939 17.2913 5.46277 17.4284 5.57692C17.5654 5.69106 17.6682 5.83782 17.7367 6.0172C17.8053 6.19657 17.8183 6.37986 17.7758 6.56706C17.7326 6.75492 17.6254 6.92222 17.4541 7.06899L13.6767 10.1754L14.8074 14.7984C14.8588 15.0104 14.8416 15.2022 14.756 15.3737C14.6703 15.5446 14.5504 15.6871 14.3962 15.8013C14.2421 15.9154 14.0622 15.9806 13.8566 15.9969C13.651 16.0132 13.454 15.9643 13.2656 15.8502L9 13.4042Z" fill="#38A700"/>
</svg>
