<svg width="14" height="15" viewBox="0 0 14 15" fill="none" xmlns="http://www.w3.org/2000/svg">
<path d="M11.6296 2.34975H10.9337V1.65388C10.9337 1.46932 10.8604 1.29233 10.7299 1.16182C10.5994 1.03132 10.4224 0.958008 10.2378 0.958008H1.88735C1.70279 0.958008 1.5258 1.03132 1.3953 1.16182C1.26479 1.29233 1.19148 1.46932 1.19148 1.65388V7.91674C1.19148 8.65497 1.48474 9.36296 2.00674 9.88497C2.52875 10.407 3.23674 10.7002 3.97497 10.7002H8.15021C9.44314 10.7002 10.5238 9.81021 10.8349 8.61261H11.6296C12.1832 8.61261 12.7142 8.39267 13.1057 8.00116C13.4973 7.60966 13.7172 7.07866 13.7172 6.52499V4.43737C13.7172 3.8837 13.4973 3.35271 13.1057 2.9612C12.7142 2.5697 12.1832 2.34975 11.6296 2.34975ZM12.3254 6.52499C12.3254 6.70955 12.2521 6.88655 12.1216 7.01705C11.9911 7.14755 11.8141 7.22087 11.6296 7.22087H10.9337V3.7415H11.6296C11.8141 3.7415 11.9911 3.81482 12.1216 3.94532C12.2521 4.07582 12.3254 4.25282 12.3254 4.43737V6.52499ZM10.9337 12.092H0.495605C0.495605 13.243 1.43225 14.1796 2.58323 14.1796H10.2378C11.3888 14.1796 12.3254 13.243 12.3254 12.092H10.9337Z" fill="#38A700"/>
</svg>
