<svg width="37" height="38" viewBox="0 0 37 38" fill="none" xmlns="http://www.w3.org/2000/svg">
<path d="M0.541354 20.3425L17.1511 37.443C17.8708 38.1841 19.0475 38.186 19.7671 37.4468L36.4565 20.3463C36.6288 20.1698 36.7655 19.9601 36.8587 19.7293C36.952 19.4984 37 19.2509 37 19.001C37 18.7511 36.952 18.5036 36.8587 18.2728C36.7655 18.042 36.6288 17.8323 36.4565 17.6558L19.7671 0.555203C19.5952 0.37885 19.3911 0.239039 19.1666 0.143772C18.942 0.0485039 18.7013 -0.00035106 18.4584 1.89891e-06C18.2154 0.000354858 17.9749 0.0499089 17.7506 0.145829C17.5263 0.241748 17.3226 0.382151 17.1511 0.559004L0.541354 17.6596C0.369734 17.8357 0.233588 18.0448 0.140699 18.275C0.0478108 18.5051 0 18.7519 0 19.001C0 19.2502 0.0478108 19.4969 0.140699 19.7271C0.233588 19.9572 0.369734 20.1664 0.541354 20.3425ZM12.9497 15.2009H22.1999V11.4008L27.7501 17.101L22.1999 22.8012V19.001H16.6498V26.6013H12.9497V15.2009Z" fill="white"/>
</svg>
