<svg width="18" height="15" viewBox="0 0 18 15" fill="none" xmlns="http://www.w3.org/2000/svg">
<path d="M17.1818 5C16.7318 5 16.3636 5.375 16.3636 5.83333V6.66667H14.7273V0.833333C14.7273 0.375 14.3591 0 13.9091 0C13.4591 0 13.0909 0.375 13.0909 0.833333V1.66667H11.4545V0.833333C11.4545 0.375 11.0864 0 10.6364 0C10.1864 0 9.81818 0.375 9.81818 0.833333V1.66667H8.18182V0.833333C8.18182 0.375 7.81364 0 7.36364 0C6.91364 0 6.54545 0.375 6.54545 0.833333V1.66667H4.90909V0.833333C4.90909 0.375 4.54091 0 4.09091 0C3.64091 0 3.27273 0.375 3.27273 0.833333V6.66667H1.63636V5.83333C1.63636 5.375 1.26818 5 0.818182 5C0.368182 5 0 5.375 0 5.83333V13.3333C0 14.25 0.736364 15 1.63636 15H7.36364V12.5C7.36364 11.5833 8.1 10.8333 9 10.8333C9.9 10.8333 10.6364 11.5833 10.6364 12.5V15H16.3636C17.2636 15 18 14.25 18 13.3333V5.83333C18 5.375 17.6318 5 17.1818 5ZM8.18182 7.5H6.54545V5H8.18182V7.5ZM11.4545 7.5H9.81818V5H11.4545V7.5Z" fill="#38A700"/>
</svg>
