<svg width="34" height="36" viewBox="0 0 34 36" fill="none" xmlns="http://www.w3.org/2000/svg">
<path d="M27.6666 0.555664C29.4112 0.555664 30.9029 1.19137 32.1417 2.46278C33.3805 3.73419 33.9999 5.26515 33.9999 7.05566V28.7223C33.9999 30.5128 33.3805 32.0438 32.1417 33.3152C30.9029 34.5866 29.4112 35.2223 27.6666 35.2223H23.5324V21.7935H27.9085L28.5682 16.5574H23.5324V13.2171C23.5324 12.3745 23.7046 11.7426 24.0491 11.3213C24.3937 10.9 25.0644 10.6893 26.0613 10.6893L28.7442 10.6668V5.9949C27.8205 5.85948 26.5158 5.79178 24.8298 5.79178C22.836 5.79178 21.2417 6.39363 20.0468 7.59733C18.852 8.80103 18.2546 10.5013 18.2546 12.698V16.5574H13.8564V21.7935H18.2546V35.2223H6.5555C4.8109 35.2223 3.3192 34.5866 2.08039 33.3152C0.841574 32.0438 0.222168 30.5128 0.222168 28.7223V7.05566C0.222168 5.26515 0.841574 3.73419 2.08039 2.46278C3.3192 1.19137 4.8109 0.555664 6.5555 0.555664H27.6666Z" fill="#38A700"/>
</svg>
