<svg width="47" height="45" viewBox="0 0 47 45" fill="none" xmlns="http://www.w3.org/2000/svg">
<path d="M22.4994 41.1175L23.5 42.0134L24.5006 41.1175L27.4709 38.4579L27.4731 38.4559L27.4946 38.4368C32.7333 33.7643 37.204 29.7768 40.349 25.9923C43.5143 22.1833 45.5 18.392 45.5 14.0899C45.5 7.00589 39.8421 1.5 32.725 1.5C29.2756 1.5 25.9589 2.85247 23.5 5.06195C21.0411 2.85247 17.7244 1.5 14.275 1.5C7.15788 1.5 1.5 7.00589 1.5 14.0899C1.5 18.392 3.48567 22.1833 6.65104 25.9923C9.796 29.7768 14.2667 33.7643 19.5054 38.4367L19.5269 38.4559L19.5291 38.4579L22.4994 41.1175Z" fill="#38A700" stroke="white" stroke-width="3"/>
</svg>
