<svg width="44" height="45" viewBox="0 0 44 45" fill="none" xmlns="http://www.w3.org/2000/svg">
<path d="M21.9914 32.4646C17.8397 28.4638 14.4669 25.1708 12.0792 22.2073C9.52397 19.0359 8.3 16.4806 8.3 14.0899C8.3 10.8004 10.5612 8.5327 13.45 8.5327C15.7384 8.5327 18.0318 10.1485 18.8249 12.3083L19.1859 13.2913H20.233H23.767H24.8141L25.1751 12.3083C25.9682 10.1485 28.2616 8.5327 30.55 8.5327C33.4388 8.5327 35.7 10.8004 35.7 14.0899C35.7 16.4804 34.4762 19.0356 31.9189 22.2068C29.529 25.1703 26.1516 28.4636 21.9914 32.4646ZM22 4.99082C19.7202 2.83426 16.6581 1.5 13.45 1.5C6.68856 1.5 1.5 7.11438 1.5 14.0899C1.5 18.3555 3.32497 22.1321 6.26475 25.9489C9.18122 29.7355 13.3274 33.7255 18.1819 38.3971L18.2028 38.4172L18.2049 38.4192L20.9578 41.0788L22 42.0857L23.0422 41.0788L25.7951 38.4192L25.7972 38.4172L25.8181 38.3971C30.6726 33.7255 34.8188 29.7355 37.7352 25.9489C40.675 22.1321 42.5 18.3555 42.5 14.0899C42.5 7.11438 37.3114 1.5 30.55 1.5C27.3419 1.5 24.2798 2.83426 22 4.99082Z" fill="#38A700" stroke="white" stroke-width="3"/>
</svg>
