<svg width="18" height="17" viewBox="0 0 18 17" fill="none" xmlns="http://www.w3.org/2000/svg">
<path d="M17.5 2.79785C17.7763 2.79785 18 2.5741 18 2.29785V1.29785C18 1.0216 17.7763 0.797852 17.5 0.797852H0.5C0.22375 0.797852 0 1.0216 0 1.29785V2.29785C0 2.5741 0.22375 2.79785 0.5 2.79785H0.999375V14.7979H0.5C0.22375 14.7979 0 15.0216 0 15.2979V16.2979C0 16.5741 0.22375 16.7979 0.5 16.7979H8V14.2979C8 14.0229 8.225 13.7979 8.5 13.7979H9.5C9.775 13.7979 10 14.0229 10 14.2979V16.7979H17.5C17.7763 16.7979 18 16.5741 18 16.2979V15.2979C18 15.0216 17.7763 14.7979 17.5 14.7979H17V2.79785H17.5ZM8 4.19785C8 3.99785 8.2 3.79785 8.4 3.79785H9.6C9.8 3.79785 10 3.99785 10 4.19785V5.39785C10 5.59785 9.8 5.79785 9.6 5.79785H8.4C8.2 5.79785 8 5.59785 8 5.39785V4.19785ZM8 7.19785C8 6.99785 8.2 6.79785 8.4 6.79785H9.6C9.8 6.79785 10 6.99785 10 7.19785V8.39785C10 8.59785 9.8 8.79785 9.6 8.79785H8.4C8.2 8.79785 8 8.59785 8 8.39785V7.19785ZM4 4.19785C4 3.99785 4.2 3.79785 4.4 3.79785H5.6C5.8 3.79785 6 3.99785 6 4.19785V5.39785C6 5.59785 5.8 5.79785 5.6 5.79785H4.4C4.2 5.79785 4 5.59785 4 5.39785V4.19785ZM5.6 8.79785H4.4C4.2 8.79785 4 8.59785 4 8.39785V7.19785C4 6.99785 4.2 6.79785 4.4 6.79785H5.6C5.8 6.79785 6 6.99785 6 7.19785V8.39785C6 8.59785 5.8 8.79785 5.6 8.79785ZM6 12.7979C6 11.141 7.34312 9.79785 9 9.79785C10.6569 9.79785 12 11.141 12 12.7979H6ZM14 8.39785C14 8.59785 13.8 8.79785 13.6 8.79785H12.4C12.2 8.79785 12 8.59785 12 8.39785V7.19785C12 6.99785 12.2 6.79785 12.4 6.79785H13.6C13.8 6.79785 14 6.99785 14 7.19785V8.39785ZM14 5.39785C14 5.59785 13.8 5.79785 13.6 5.79785H12.4C12.2 5.79785 12 5.59785 12 5.39785V4.19785C12 3.99785 12.2 3.79785 12.4 3.79785H13.6C13.8 3.79785 14 3.99785 14 4.19785V5.39785Z" fill="white"/>
</svg>
