<svg width="18" height="16" viewBox="0 0 18 16" fill="none" xmlns="http://www.w3.org/2000/svg">
<path d="M17.5 2C17.7763 2 18 1.77625 18 1.5V0.5C18 0.22375 17.7763 0 17.5 0H0.5C0.22375 0 0 0.22375 0 0.5V1.5C0 1.77625 0.22375 2 0.5 2H0.999375V14H0.5C0.22375 14 0 14.2238 0 14.5V15.5C0 15.7762 0.22375 16 0.5 16H8V13.5C8 13.225 8.225 13 8.5 13H9.5C9.775 13 10 13.225 10 13.5V16H17.5C17.7763 16 18 15.7762 18 15.5V14.5C18 14.2238 17.7763 14 17.5 14H17V2H17.5ZM8 3.4C8 3.2 8.2 3 8.4 3H9.6C9.8 3 10 3.2 10 3.4V4.6C10 4.8 9.8 5 9.6 5H8.4C8.2 5 8 4.8 8 4.6V3.4ZM8 6.4C8 6.2 8.2 6 8.4 6H9.6C9.8 6 10 6.2 10 6.4V7.6C10 7.8 9.8 8 9.6 8H8.4C8.2 8 8 7.8 8 7.6V6.4ZM4 3.4C4 3.2 4.2 3 4.4 3H5.6C5.8 3 6 3.2 6 3.4V4.6C6 4.8 5.8 5 5.6 5H4.4C4.2 5 4 4.8 4 4.6V3.4ZM5.6 8H4.4C4.2 8 4 7.8 4 7.6V6.4C4 6.2 4.2 6 4.4 6H5.6C5.8 6 6 6.2 6 6.4V7.6C6 7.8 5.8 8 5.6 8ZM6 12C6 10.3431 7.34312 9 9 9C10.6569 9 12 10.3431 12 12H6ZM14 7.6C14 7.8 13.8 8 13.6 8H12.4C12.2 8 12 7.8 12 7.6V6.4C12 6.2 12.2 6 12.4 6H13.6C13.8 6 14 6.2 14 6.4V7.6ZM14 4.6C14 4.8 13.8 5 13.6 5H12.4C12.2 5 12 4.8 12 4.6V3.4C12 3.2 12.2 3 12.4 3H13.6C13.8 3 14 3.2 14 3.4V4.6Z" fill="#38A700"/>
</svg>
