<svg width="14" height="14" viewBox="0 0 14 14" fill="none" xmlns="http://www.w3.org/2000/svg">
<path fill-rule="evenodd" clip-rule="evenodd" d="M6.9624 13.1406C8.68631 13.1406 10.3396 12.4558 11.5586 11.2368C12.7776 10.0178 13.4624 8.36453 13.4624 6.64062C13.4624 4.91672 12.7776 3.26342 11.5586 2.04443C10.3396 0.825445 8.68631 0.140625 6.9624 0.140625C5.23849 0.140625 3.58519 0.825445 2.36621 2.04443C1.14722 3.26342 0.462402 4.91672 0.462402 6.64062C0.462402 8.36453 1.14722 10.0178 2.36621 11.2368C3.58519 12.4558 5.23849 13.1406 6.9624 13.1406ZM7.7749 4.20312C7.7749 4.41861 7.6893 4.62528 7.53693 4.77765C7.38455 4.93002 7.17789 5.01562 6.9624 5.01562C6.74691 5.01562 6.54025 4.93002 6.38788 4.77765C6.23551 4.62528 6.1499 4.41861 6.1499 4.20312C6.1499 3.98764 6.23551 3.78097 6.38788 3.6286C6.54025 3.47623 6.74691 3.39062 6.9624 3.39062C7.17789 3.39062 7.38455 3.47623 7.53693 3.6286C7.6893 3.78097 7.7749 3.98764 7.7749 4.20312ZM6.1499 5.82812C5.98829 5.82812 5.83329 5.89233 5.71901 6.00661C5.60473 6.12089 5.54053 6.27588 5.54053 6.4375C5.54053 6.59912 5.60473 6.75411 5.71901 6.86839C5.83329 6.98267 5.98829 7.04688 6.1499 7.04688H6.35303V8.67188H5.54053C5.37891 8.67188 5.22391 8.73608 5.10963 8.85036C4.99535 8.96464 4.93115 9.11963 4.93115 9.28125C4.93115 9.44287 4.99535 9.59786 5.10963 9.71214C5.22391 9.82642 5.37891 9.89062 5.54053 9.89062H8.38428C8.54589 9.89062 8.70089 9.82642 8.81517 9.71214C8.92945 9.59786 8.99365 9.44287 8.99365 9.28125C8.99365 9.11963 8.92945 8.96464 8.81517 8.85036C8.70089 8.73608 8.54589 8.67188 8.38428 8.67188H7.57178V5.82812H6.1499Z" fill="#38A700"/>
</svg>
