<svg width="36" height="38" viewBox="0 0 36 38" fill="none" xmlns="http://www.w3.org/2000/svg">
<path d="M17.7778 0.666992C22.4873 0.666992 23.0749 0.685214 24.9226 0.776325C26.7686 0.867436 28.0253 1.17175 29.1311 1.62366C30.2751 2.0865 31.2389 2.71335 32.2026 3.72468C33.084 4.6356 33.766 5.73749 34.2011 6.95366C34.6293 8.11441 34.9205 9.43735 35.0071 11.378C35.0886 13.3205 35.1111 13.9382 35.1111 18.8892C35.1111 23.8402 35.0938 24.4579 35.0071 26.4004C34.9205 28.3411 34.6293 29.6622 34.2011 30.8248C33.7672 32.0416 33.0851 33.1438 32.2026 34.0537C31.3359 34.98 30.2878 35.6969 29.1311 36.1548C28.027 36.6049 26.7686 36.911 24.9226 37.0021C23.0749 37.0877 22.4873 37.1114 17.7778 37.1114C13.0683 37.1114 12.4807 37.0932 10.633 37.0021C8.78699 36.911 7.53032 36.6049 6.42446 36.1548C5.26716 35.6982 4.21884 34.9812 3.35299 34.0537C2.47143 33.143 1.78941 32.041 1.35446 30.8248C0.924592 29.664 0.635125 28.3411 0.548458 26.4004C0.466991 24.4579 0.444458 23.8402 0.444458 18.8892C0.444458 13.9382 0.461791 13.3205 0.548458 11.378C0.635125 9.43552 0.924592 8.11624 1.35446 6.95366C1.7882 5.73674 2.47038 4.63455 3.35299 3.72468C4.21909 2.79759 5.26733 2.08054 6.42446 1.62366C7.53032 1.17175 8.78526 0.867436 10.633 0.776325C12.4807 0.690681 13.0683 0.666992 17.7778 0.666992ZM17.7778 9.7781C15.4792 9.7781 13.2748 10.738 11.6495 12.4467C10.0242 14.1553 9.11112 16.4728 9.11112 18.8892C9.11112 21.3056 10.0242 23.6231 11.6495 25.3317C13.2748 27.0404 15.4792 28.0003 17.7778 28.0003C20.0763 28.0003 22.2807 27.0404 23.906 25.3317C25.5314 23.6231 26.4445 21.3056 26.4445 18.8892C26.4445 16.4728 25.5314 14.1553 23.906 12.4467C22.2807 10.738 20.0763 9.7781 17.7778 9.7781ZM29.0445 9.32255C29.0445 8.71844 28.8162 8.13908 28.4099 7.71192C28.0035 7.28475 27.4524 7.04477 26.8778 7.04477C26.3032 7.04477 25.7521 7.28475 25.3457 7.71192C24.9394 8.13908 24.7111 8.71844 24.7111 9.32255C24.7111 9.92665 24.9394 10.506 25.3457 10.9332C25.7521 11.3603 26.3032 11.6003 26.8778 11.6003C27.4524 11.6003 28.0035 11.3603 28.4099 10.9332C28.8162 10.506 29.0445 9.92665 29.0445 9.32255ZM17.7778 13.4225C19.1569 13.4225 20.4796 13.9985 21.4547 15.0237C22.4299 16.0489 22.9778 17.4394 22.9778 18.8892C22.9778 20.3391 22.4299 21.7295 21.4547 22.7547C20.4796 23.7799 19.1569 24.3559 17.7778 24.3559C16.3987 24.3559 15.076 23.7799 14.1008 22.7547C13.1256 21.7295 12.5778 20.3391 12.5778 18.8892C12.5778 17.4394 13.1256 16.0489 14.1008 15.0237C15.076 13.9985 16.3987 13.4225 17.7778 13.4225Z" fill="#38A700"/>
</svg>
