<svg width="16" height="16" viewBox="0 0 16 16" fill="none" xmlns="http://www.w3.org/2000/svg">
<path d="M0.462402 13.474C0.462402 13.916 0.637997 14.3399 0.950558 14.6525C1.26312 14.965 1.68704 15.1406 2.12907 15.1406H13.7957C14.2378 15.1406 14.6617 14.965 14.9742 14.6525C15.2868 14.3399 15.4624 13.916 15.4624 13.474V1.80729C15.4624 1.36526 15.2868 0.941341 14.9742 0.62878C14.6617 0.31622 14.2378 0.140625 13.7957 0.140625H2.12907C1.68704 0.140625 1.26312 0.31622 0.950558 0.62878C0.637997 0.941341 0.462402 1.36526 0.462402 1.80729V13.474ZM7.9624 2.64062H12.9624V7.64062H11.2957V4.30729H7.9624V2.64062ZM2.9624 7.64062H4.62907V10.974H7.9624V12.6406H2.9624V7.64062Z" fill="#38A700"/>
</svg>
