<svg width="18" height="14" viewBox="0 0 18 14" fill="none" xmlns="http://www.w3.org/2000/svg">
<path fill-rule="evenodd" clip-rule="evenodd" d="M0.462402 2.38595C0.462402 1.90778 0.644562 1.4492 0.968808 1.11108C1.29305 0.77296 1.73283 0.583008 2.19138 0.583008H16.0232C16.4818 0.583008 16.9215 0.77296 17.2458 1.11108C17.57 1.4492 17.7522 1.90778 17.7522 2.38595V12.0017C17.7522 12.4798 17.57 12.9384 17.2458 13.2765C16.9215 13.6146 16.4818 13.8046 16.0232 13.8046H2.19138C1.73283 13.8046 1.29305 13.6146 0.968808 13.2765C0.644562 12.9384 0.462402 12.4798 0.462402 12.0017L0.462402 2.38595ZM5.07301 2.98693H2.76771V5.39086H3.92036V4.1889H5.07301V2.98693ZM14.2942 4.1889H13.1416V2.98693H15.4469V5.39086H14.2942V4.1889ZM9.10729 4.1889C8.34303 4.1889 7.61008 4.50548 7.06967 5.06901C6.52926 5.63254 6.22566 6.39685 6.22566 7.1938C6.22566 7.99075 6.52926 8.75506 7.06967 9.31859C7.61008 9.88212 8.34303 10.1987 9.10729 10.1987C9.87154 10.1987 10.6045 9.88212 11.1449 9.31859C11.6853 8.75506 11.9889 7.99075 11.9889 7.1938C11.9889 6.39685 11.6853 5.63254 11.1449 5.06901C10.6045 4.50548 9.87154 4.1889 9.10729 4.1889ZM13.1416 10.1987V11.4007H15.4469V8.99675H14.2942V10.1987H13.1416ZM2.76771 8.99675H3.92036V10.1987H5.07301V11.4007H2.76771V8.99675Z" fill="#38A700"/>
</svg>
