<svg width="13" height="16" viewBox="0 0 13 16" fill="none" xmlns="http://www.w3.org/2000/svg">
<path d="M13 8.8V14.4C13 14.8243 12.8288 15.2313 12.524 15.5314C12.2193 15.8314 11.806 16 11.375 16C10.944 16 10.5307 15.8314 10.226 15.5314C9.92121 15.2313 9.75 14.8243 9.75 14.4V10.4H8.125V2.4C8.125 1.76348 8.38181 1.15303 8.83893 0.702944C9.29605 0.252856 9.91603 0 10.5625 0L13 0V8.8ZM1.625 8C1.19402 8 0.780698 7.83143 0.475951 7.53137C0.171205 7.23131 0 6.82435 0 6.4V0.8C0 0.587827 0.0856024 0.384344 0.237976 0.234315C0.390349 0.0842855 0.597012 0 0.8125 0C1.02799 0 1.23465 0.0842855 1.38702 0.234315C1.5394 0.384344 1.625 0.587827 1.625 0.8V4H2.4375V0.8C2.4375 0.587827 2.5231 0.384344 2.67548 0.234315C2.82785 0.0842855 3.03451 0 3.25 0C3.46549 0 3.67215 0.0842855 3.82452 0.234315C3.9769 0.384344 4.0625 0.587827 4.0625 0.8V4H4.875V0.8C4.875 0.587827 4.9606 0.384344 5.11298 0.234315C5.26535 0.0842855 5.47201 0 5.6875 0C5.90299 0 6.10965 0.0842855 6.26202 0.234315C6.4144 0.384344 6.5 0.587827 6.5 0.8V6.4C6.5 6.82435 6.32879 7.23131 6.02405 7.53137C5.7193 7.83143 5.30598 8 4.875 8V14.4C4.875 14.8243 4.7038 15.2313 4.39905 15.5314C4.0943 15.8314 3.68098 16 3.25 16C2.81902 16 2.4057 15.8314 2.10095 15.5314C1.7962 15.2313 1.625 14.8243 1.625 14.4V8Z" fill="#38A700"/>
</svg>
