<svg width="21" height="16" viewBox="0 0 21 16" fill="none" xmlns="http://www.w3.org/2000/svg">
<path d="M3.58318 9.08167V11.6575C3.58318 12.3267 3.94984 12.95 4.53651 13.2708L9.11984 15.7733C9.66984 16.0758 10.3298 16.0758 10.8798 15.7733L15.4632 13.2708C16.0498 12.95 16.4165 12.3267 16.4165 11.6575V9.08167L10.8798 12.1067C10.3298 12.4092 9.66984 12.4092 9.11984 12.1067L3.58318 9.08167ZM9.11984 0.226668L1.39234 4.44334C0.759844 4.79167 0.759844 5.70834 1.39234 6.05667L9.11984 10.2733C9.66984 10.5758 10.3298 10.5758 10.8798 10.2733L18.2498 6.24917V11.6667C18.2498 12.1708 18.6623 12.5833 19.1665 12.5833C19.6707 12.5833 20.0832 12.1708 20.0832 11.6667V5.79084C20.0832 5.45167 19.8998 5.14917 19.6065 4.98417L10.8798 0.226668C10.609 0.0822242 10.3068 0.00666809 9.99984 0.00666809C9.6929 0.00666809 9.39068 0.0822242 9.11984 0.226668Z" fill="#38A700"/>
</svg>
