<svg width="15" height="14" viewBox="0 0 15 14" fill="none" xmlns="http://www.w3.org/2000/svg">
<path d="M14.1425 6.71089C14.1425 3.06173 11.1809 0.100098 7.53169 0.100098C3.88253 0.100098 0.920898 3.06173 0.920898 6.71089C0.920898 10.3601 3.88253 13.3217 7.53169 13.3217C11.1809 13.3217 14.1425 10.3601 14.1425 6.71089ZM7.53169 8.5553V7.37197H5.54846C5.18486 7.37197 4.88738 7.07449 4.88738 6.71089C4.88738 6.3473 5.18486 6.04981 5.54846 6.04981H7.53169V4.86648C7.53169 4.569 7.88868 4.42356 8.09361 4.6351L9.93802 6.47951C10.0702 6.61173 10.0702 6.81667 9.93802 6.94888L8.09361 8.79329C8.04701 8.83898 7.98793 8.86984 7.92381 8.882C7.85969 8.89416 7.79341 8.88706 7.73332 8.86161C7.67323 8.83616 7.62201 8.79349 7.58613 8.73898C7.55025 8.68447 7.53131 8.62056 7.53169 8.5553Z" fill="#38A700"/>
</svg>
