<svg width="11" height="11" viewBox="0 0 11 11" fill="none" xmlns="http://www.w3.org/2000/svg">
<path d="M9.77778 0C10.1019 0 10.4128 0.128769 10.642 0.357981C10.8712 0.587192 11 0.898069 11 1.22222V9.77778C11 10.1019 10.8712 10.4128 10.642 10.642C10.4128 10.8712 10.1019 11 9.77778 11H1.22222C0.898069 11 0.587192 10.8712 0.357981 10.642C0.128769 10.4128 0 10.1019 0 9.77778V1.22222C0 0.898069 0.128769 0.587192 0.357981 0.357981C0.587192 0.128769 0.898069 0 1.22222 0H9.77778ZM7.68778 8.55556L7.10722 6.06222L9.03833 4.39389L6.49 4.17389L5.5 1.83333L4.51 4.18L1.96167 4.4L3.89278 6.06833L3.31222 8.55556L5.5 7.23556L7.68778 8.55556Z" fill="#38A700"/>
</svg>
