<svg width="21" height="19" viewBox="0 0 21 19" fill="none" xmlns="http://www.w3.org/2000/svg">
<path d="M10.3538 14.936L5.77943 17.5591C5.57735 17.6815 5.36609 17.7339 5.14563 17.7164C4.92518 17.699 4.73229 17.629 4.56695 17.5066C4.40161 17.3842 4.27301 17.2314 4.18116 17.0481C4.0893 16.8641 4.07093 16.6585 4.12605 16.4311L5.33853 11.4735L1.28774 8.14222C1.10403 7.98483 0.989392 7.80541 0.943832 7.60396C0.897537 7.40321 0.911131 7.20665 0.984615 7.01429C1.0581 6.82193 1.16832 6.66455 1.31529 6.54214C1.46226 6.41973 1.66434 6.34104 1.92153 6.30606L7.26748 5.86014L9.33421 1.19106C9.42606 0.981216 9.56862 0.823831 9.76188 0.718908C9.95441 0.613985 10.1517 0.561523 10.3538 0.561523C10.5559 0.561523 10.7535 0.613985 10.9468 0.718908C11.1393 0.823831 11.2815 0.981216 11.3734 1.19106L13.4401 5.86014L18.7861 6.30606C19.0433 6.34104 19.2453 6.41973 19.3923 6.54214C19.5393 6.66455 19.6495 6.82193 19.723 7.01429C19.7965 7.20665 19.8104 7.40321 19.7649 7.60396C19.7186 7.80541 19.6036 7.98483 19.4199 8.14222L15.3691 11.4735L16.5815 16.4311C16.6367 16.6585 16.6183 16.8641 16.5264 17.0481C16.4346 17.2314 16.306 17.3842 16.1406 17.5066C15.9753 17.629 15.7824 17.699 15.562 17.7164C15.3415 17.7339 15.1302 17.6815 14.9282 17.5591L10.3538 14.936Z" fill="#38A700" stroke="#38A700"/>
</svg>
