<svg width="11" height="11" viewBox="0 0 11 11" fill="none" xmlns="http://www.w3.org/2000/svg">
<path d="M5.49988 8.52555L2.83389 10.0543C2.71611 10.1257 2.59298 10.1562 2.4645 10.146C2.33602 10.1358 2.2236 10.0951 2.12724 10.0237C2.03088 9.9524 1.95593 9.86332 1.90239 9.75651C1.84886 9.64929 1.83815 9.52944 1.87027 9.39695L2.57692 6.50759L0.216074 4.56607C0.109006 4.47434 0.0421953 4.36977 0.0156424 4.25236C-0.0113387 4.13536 -0.00341569 4.02081 0.0394115 3.9087C0.0822387 3.79659 0.146479 3.70486 0.232134 3.63352C0.317788 3.56218 0.435563 3.51632 0.585458 3.49593L3.70114 3.23604L4.90565 0.514852C4.95919 0.392551 5.04227 0.300825 5.15491 0.239675C5.26711 0.178524 5.3821 0.147949 5.49988 0.147949C5.61765 0.147949 5.73286 0.178524 5.84549 0.239675C5.9577 0.300825 6.04057 0.392551 6.09411 0.514852L7.29862 3.23604L10.4143 3.49593C10.5642 3.51632 10.682 3.56218 10.7676 3.63352C10.8533 3.70486 10.9175 3.79659 10.9603 3.9087C11.0032 4.02081 11.0113 4.13536 10.9848 4.25236C10.9578 4.36977 10.8908 4.47434 10.7837 4.56607L8.42283 6.50759L9.12948 9.39695C9.1616 9.52944 9.1509 9.64929 9.09736 9.75651C9.04383 9.86332 8.96888 9.9524 8.87252 10.0237C8.77616 10.0951 8.66374 10.1358 8.53526 10.146C8.40677 10.1562 8.28365 10.1257 8.16587 10.0543L5.49988 8.52555Z" fill="#38A700"/>
</svg>
