<svg width="21" height="19" viewBox="0 0 21 19" fill="none" xmlns="http://www.w3.org/2000/svg">
<path d="M10.4368 15.5224L5.86244 18.1455C5.66036 18.2679 5.44909 18.3204 5.22864 18.3029C5.00819 18.2854 4.8153 18.2154 4.64996 18.093C4.48462 17.9706 4.35602 17.8178 4.26417 17.6345C4.17231 17.4505 4.15394 17.2449 4.20905 17.0176L5.42154 12.06L1.37074 8.72864C1.18703 8.57126 1.0724 8.39184 1.02684 8.19039C0.980545 7.98963 0.994139 7.79308 1.06762 7.60072C1.14111 7.40836 1.25133 7.25097 1.3983 7.12856C1.54527 7.00615 1.74735 6.92746 2.00454 6.89249L7.35049 6.44657L9.41722 1.77749C9.50907 1.56764 9.65163 1.41026 9.84489 1.30533C10.0374 1.20041 10.2347 1.14795 10.4368 1.14795C10.6389 1.14795 10.8366 1.20041 11.0298 1.30533C11.2223 1.41026 11.3645 1.56764 11.4564 1.77749L13.5231 6.44657L18.8691 6.89249C19.1263 6.92746 19.3283 7.00615 19.4753 7.12856C19.6223 7.25097 19.7325 7.40836 19.806 7.60072C19.8795 7.79308 19.8934 7.98963 19.8479 8.19039C19.8016 8.39184 19.6866 8.57126 19.5029 8.72864L15.4521 12.06L16.6646 17.0176C16.7197 17.2449 16.7013 17.4505 16.6094 17.6345C16.5176 17.8178 16.389 17.9706 16.2237 18.093C16.0583 18.2154 15.8654 18.2854 15.645 18.3029C15.4245 18.3204 15.2132 18.2679 15.0112 18.1455L10.4368 15.5224Z" stroke="#38A700"/>
</svg>
