<svg width="18" height="17" viewBox="0 0 18 17" fill="none" xmlns="http://www.w3.org/2000/svg">
<path d="M9 14.202L4.73441 16.648C4.54597 16.7622 4.34897 16.8111 4.1434 16.7948C3.93783 16.7785 3.75795 16.7133 3.60377 16.5991C3.4496 16.485 3.32968 16.3424 3.24403 16.1715C3.15837 16 3.14124 15.8082 3.19263 15.5962L4.32327 10.9733L0.545913 7.86684C0.374605 7.72008 0.267708 7.55277 0.225223 7.36491C0.182053 7.17771 0.19473 6.99443 0.263254 6.81505C0.331777 6.63568 0.434562 6.48891 0.571609 6.37477C0.708656 6.26062 0.897096 6.18724 1.13693 6.15463L6.12201 5.7388L8.04924 1.3849C8.13489 1.18921 8.26783 1.04245 8.44804 0.944613C8.62758 0.846772 8.81156 0.797852 9 0.797852C9.18844 0.797852 9.37277 0.846772 9.55299 0.944613C9.73252 1.04245 9.86511 1.18921 9.95077 1.3849L11.878 5.7388L16.8631 6.15463C17.1029 6.18724 17.2913 6.26062 17.4284 6.37477C17.5654 6.48891 17.6682 6.63568 17.7367 6.81505C17.8053 6.99443 17.8183 7.17771 17.7758 7.36491C17.7326 7.55277 17.6254 7.72008 17.4541 7.86684L13.6767 10.9733L14.8074 15.5962C14.8588 15.8082 14.8416 16 14.756 16.1715C14.6703 16.3424 14.5504 16.485 14.3962 16.5991C14.2421 16.7133 14.0622 16.7785 13.8566 16.7948C13.651 16.8111 13.454 16.7622 13.2656 16.648L9 14.202Z" fill="white"/>
</svg>
