<svg width="40" height="32" viewBox="0 0 40 32" fill="none" xmlns="http://www.w3.org/2000/svg">
<path d="M39.4154 7.20287C39.4154 3.55713 36.8866 0.624344 33.7619 0.624344C29.5294 0.414512 25.2129 0.333496 20.8016 0.333496H19.4264C15.0259 0.333496 10.7017 0.414512 6.46925 0.625155C3.35219 0.625155 0.823401 3.57415 0.823401 7.21988C0.632405 10.1033 0.551423 12.9874 0.556007 15.8716C0.548367 18.7558 0.634952 21.6427 0.815762 24.5323C0.815762 28.178 3.34455 31.1351 6.46161 31.1351C10.908 31.3538 15.469 31.4511 20.1064 31.443C24.7514 31.4592 29.2997 31.3565 33.7512 31.1351C36.8759 31.1351 39.4047 28.178 39.4047 24.5323C39.588 21.64 39.6721 18.7558 39.6644 15.8635C39.6817 12.9793 39.5987 10.0925 39.4154 7.20287ZM16.3705 23.8193V7.89961L27.4483 15.8554L16.3705 23.8193Z" fill="#38A700"/>
</svg>
