<svg width="20" height="13" viewBox="0 0 20 13" fill="none" xmlns="http://www.w3.org/2000/svg">
<path d="M11.625 1.93114C11.625 1.93114 10.7308 3.33334 9.86689 3.33334H6.70022C5.83635 3.33334 5.05609 3.8514 4.45442 4.42774L1.63355 7.13334C1.29282 7.46014 1.00909 8.10614 1.00022 8.40001C0.979952 9.03334 1.00022 9.66667 1.00022 9.66667C1.00022 9.66667 2.26688 9.66667 2.26688 8.40001V7.76667L3.53355 6.5H4.16688L4.36702 6.86734C4.36702 6.86734 3.15862 9.17774 3.15862 11.3361C3.15862 12.2 4.02248 12.2 4.02248 12.2H4.88635C4.88635 12.2 5.31828 12.2 4.88635 11.7693L4.45568 11.3361C4.45442 10.4723 5.43355 9.24487 6.06688 8.40001C6.06688 8.40001 6.08842 9.86681 6.06688 10.9333C6.05675 11.4527 6.41142 12.2 6.93075 12.2H7.79462C7.79462 12.2 8.22528 12.2 7.79462 11.7693L7.36268 11.3361C6.96622 10.6167 7.96689 7.76667 7.96689 7.76667C9.57808 7.76667 9.86689 8.40001 11.7669 8.40001L12.228 11.3361C12.3686 12.2355 13.0336 12.2 13.0336 12.2H14.9336C15.3642 12.2 16.1508 11.8061 15.3642 11.2196L14.9336 10.9333V8.40001C16.4713 8.18214 17.4669 7.13334 17.4669 5.86667H18.7336C19.1402 5.86667 20.0002 5.86667 20.0002 5.23334V3.96667L17.8418 1.83614C16.888 0.898805 16.2002 0.166672 14.9336 0.166672C13.0931 0.166672 12.228 0.887405 11.625 1.93114Z" fill="#38A700"/>
</svg>
